<svg id="Capa_1" data-name="Capa 1" xmlns="http://www.w3.org/2000/svg" viewBox="0 0 500.93 111.24"><defs><style>.cls-1{fill:#5b3a29;}.cls-2{fill:#f6931e;}</style></defs><title>venechile-logo</title><path class="cls-1" d="M138.22,109.27a5.94,5.94,0,0,1-2.11-2.58l-16.3-39.87a5.51,5.51,0,0,1,0-4.38,5.73,5.73,0,0,1,10.6.05l11,26.89,11-26.89a5.75,5.75,0,0,1,10.6-.05,5.51,5.51,0,0,1,0,4.38l-16.29,39.87a5.77,5.77,0,0,1-8.49,2.58Z"/><path class="cls-1" d="M189.9,110.22a22.15,22.15,0,0,1-22.1-22.1V81a22.07,22.07,0,0,1,6-15.77,19.73,19.73,0,0,1,14.92-6.33h.16a19.65,19.65,0,0,1,14.92,6.33,22.11,22.11,0,0,1,6,15.77v3.53a5.6,5.6,0,0,1-1.63,4.06A5.51,5.51,0,0,1,204,90.28H179.46a10.19,10.19,0,0,0,3.69,6.06,10.44,10.44,0,0,0,6.75,2.43h.16a10.18,10.18,0,0,0,8.6-4.32,5.58,5.58,0,0,1,3.74-2.27,5.66,5.66,0,0,1,4.27,1.05,5.54,5.54,0,0,1,2.21,3.8,5.47,5.47,0,0,1-1.05,4.22,21.7,21.7,0,0,1-7.8,6.59,21.93,21.93,0,0,1-10,2.37Zm8.23-31.38a10.58,10.58,0,0,0-2.79-5.91,8.68,8.68,0,0,0-6.49-2.58h-.16a8.68,8.68,0,0,0-6.49,2.58,10.58,10.58,0,0,0-2.79,5.91Z"/><path class="cls-1" d="M252.39,108.53a5.43,5.43,0,0,1-1.69-4V81.06A10.71,10.71,0,0,0,240,70.35h-.16a10.8,10.8,0,0,0-10.71,10.71c0,9.39,0,14.08,0,23.47a5.45,5.45,0,0,1-1.63,4,5.72,5.72,0,0,1-9.76-4c0-9.39,0-14.08,0-23.47A22.15,22.15,0,0,1,239.89,59H240a22.15,22.15,0,0,1,22.1,22.1v23.47a5.43,5.43,0,0,1-1.69,4,5.54,5.54,0,0,1-4,1.69A5.61,5.61,0,0,1,252.39,108.53Z"/><path class="cls-1" d="M290.67,110.22a22.15,22.15,0,0,1-22.1-22.1V81a22.07,22.07,0,0,1,6-15.77,19.73,19.73,0,0,1,14.92-6.33h.16a19.65,19.65,0,0,1,14.92,6.33,22.11,22.11,0,0,1,6,15.77c0,1.41,0,2.12,0,3.53a5.6,5.6,0,0,1-1.63,4.06,5.51,5.51,0,0,1-4.06,1.69H280.23a10.19,10.19,0,0,0,3.69,6.06,10.44,10.44,0,0,0,6.75,2.43h.16a10.18,10.18,0,0,0,8.6-4.32,5.58,5.58,0,0,1,3.74-2.27,5.66,5.66,0,0,1,4.27,1.05,5.54,5.54,0,0,1,2.21,3.8,5.47,5.47,0,0,1-1.05,4.22,21.7,21.7,0,0,1-7.8,6.59,21.93,21.93,0,0,1-10,2.37Zm8.23-31.38a10.58,10.58,0,0,0-2.79-5.91,8.68,8.68,0,0,0-6.49-2.58h-.16A8.68,8.68,0,0,0,283,72.93a10.58,10.58,0,0,0-2.79,5.91Z"/><path class="cls-2" d="M337.24,110.22a22.15,22.15,0,0,1-22-22c0-2.83,0-4.24,0-7.07a22.15,22.15,0,0,1,22-22h.16a21.58,21.58,0,0,1,13,4.27,5.8,5.8,0,0,1,1.21,8,5.59,5.59,0,0,1-3.74,2.27,5.47,5.47,0,0,1-4.22-1,10.31,10.31,0,0,0-6.28-2.11h-.16a10.71,10.71,0,0,0-10.65,10.65v7.07a10.62,10.62,0,0,0,10.65,10.65h.16a10.48,10.48,0,0,0,6.28-2.06,5.61,5.61,0,0,1,4.22-1.05,5.64,5.64,0,0,1,4.75,6.49,5.39,5.39,0,0,1-2.21,3.74,21.58,21.58,0,0,1-13,4.27Z"/><path class="cls-2" d="M381.69,60.28a21.61,21.61,0,0,1,21.52,21.52c0,9.15,0,13.73,0,22.89a5.33,5.33,0,0,1-1.63,3.9,5.39,5.39,0,0,1-4,1.63,5.58,5.58,0,0,1-5.54-5.54c0-9.15,0-13.73,0-22.89a10.44,10.44,0,0,0-10.39-10.39h-.16a10,10,0,0,0-7.33,3.06,10.07,10.07,0,0,0-3.06,7.33c0,9.15,0,13.73,0,22.89a5.33,5.33,0,0,1-1.63,3.9,5.39,5.39,0,0,1-4,1.63,5.58,5.58,0,0,1-5.54-5.54q0-29.29,0-58.59a5.39,5.39,0,0,1,1.63-4,5.33,5.33,0,0,1,3.9-1.63,5.58,5.58,0,0,1,5.59,5.59c0,6.75,0,10.13,0,16.88a21.09,21.09,0,0,1,10.39-2.69Z"/><path class="cls-2" d="M416.87,40.45A5.6,5.6,0,0,1,421,42.14a5.86,5.86,0,0,1,0,8.33,5.6,5.6,0,0,1-4.11,1.69,5.85,5.85,0,1,1,0-11.71Zm0,69.77a5.94,5.94,0,0,0,5.85-5.91q0-20.54,0-41.08A5.75,5.75,0,0,0,421,59.07a5.58,5.58,0,0,0-4.11-1.74,5.64,5.64,0,0,0-4.17,1.74A5.75,5.75,0,0,0,411,63.23q0,20.54,0,41.08a5.94,5.94,0,0,0,5.91,5.91Z"/><path class="cls-2" d="M446.77,109.74A23.24,23.24,0,0,1,433,88.44q0-21.28,0-42.56a5.58,5.58,0,0,1,5.59-5.59,5.33,5.33,0,0,1,3.9,1.63,5.39,5.39,0,0,1,1.63,4q0,21.28,0,42.56a12.32,12.32,0,0,0,7.22,11.13,5.43,5.43,0,0,1,3,3.11,5.29,5.29,0,0,1-.16,4.22,5.15,5.15,0,0,1-5.06,3.32A5.46,5.46,0,0,1,446.77,109.74Z"/><path class="cls-2" d="M481.1,110.22A22.15,22.15,0,0,1,459,88.12V81a22.07,22.07,0,0,1,6-15.77,19.73,19.73,0,0,1,14.92-6.33H480A19.65,19.65,0,0,1,495,65.24a22.11,22.11,0,0,1,6,15.77v3.53a5.6,5.6,0,0,1-1.63,4.06,5.51,5.51,0,0,1-4.06,1.69H470.66a10.19,10.19,0,0,0,3.69,6.06,10.44,10.44,0,0,0,6.75,2.43h.16a10.18,10.18,0,0,0,8.6-4.32,5.58,5.58,0,0,1,3.74-2.27,5.66,5.66,0,0,1,4.27,1.05,5.54,5.54,0,0,1,2.21,3.8,5.47,5.47,0,0,1-1.05,4.22,21.7,21.7,0,0,1-7.8,6.59,21.93,21.93,0,0,1-10,2.37Zm8.23-31.38a10.58,10.58,0,0,0-2.79-5.91A8.68,8.68,0,0,0,480,70.35h-.16a8.68,8.68,0,0,0-6.49,2.58,10.58,10.58,0,0,0-2.79,5.91Z"/><path class="cls-1" d="M71.92,40.14c-1.36,17-6.66,34.36-20.67,48-19.64,19.15-45.45,4.41-49.89-14A45.19,45.19,0,0,1,.18,59.25,84.68,84.68,0,0,1,11.9,23.5C17.26,14.49,24.77,8,35.42,6.65A57.15,57.15,0,0,0,55.3.67C57.89-.69,59,0,58.83,2.87c-.27,4.63,1.61,8,5,11.3C70.34,20.64,71.81,29.26,71.92,40.14Z"/><path class="cls-1" d="M30.28,99.18c29,7.27,49.84-5,67.93-24.18,7.05-7.46,10.88-16.72,9.48-27.4-.52-3.95,2.35-5.85,4.6-8.33-2,7.82-1.17,15.53-.74,23.42.7,12.86-5.67,23.39-14.87,32-13.9,13-30.05,19.42-49.29,15.33C40.75,108.6,35.24,105.05,30.28,99.18Z"/><path class="cls-2" d="M49.78,94.86C67.52,80,75,60.22,75.89,37.76c.2-5.05,1.71-5.57,5.92-5.1,6.89.76,13.57,1.53,17.94,8s3.64,12.93.72,19.45C96.26,69.44,89,76.3,81,82.33c-8.71,6.52-18,12-29,13.74C50.81,96.48,49.71,96.75,49.78,94.86Z"/></svg>